# xmcd CD database file
#
# Track frame offsets:
#	900
#	20176
#	34727
#	52878
#	78904
#	93155
#	112656
#	134857
#	148883
#	163359
#	178960
#	191711
#	215712
#	229588
#	244814
#	256440
#	281266
#	305192
#
# Disc length: 4375 seconds
#
# Revision: 0
# Processed by: cddbd v1.5.2PL0 Copyright (c) Steve Scherf et al.
# Submitted via: cddb-tool 0.4.7
#
DISCID=11110b12
DTITLE=Free - Highway and Free At Last
DYEAR=1970
DGENRE=Rock
TTITLE0=The Highway Song
TTITLE1=The Stealer
TTITLE2=On My Way
TTITLE3=Be My Friend
TTITLE4=Sunny Day
TTITLE5=Ride On A Pony
TTITLE6=Love You So
TTITLE7=Bodie
TTITLE8=Soon I Will Be Gone
TTITLE9=Catch A Train
TTITLE10=Soldier Boy
TTITLE11=Magic Ship
TTITLE12=Sail On
TTITLE13=Travellin' Man
TTITLE14=Little Bit Of Love
TTITLE15=Guardian Of The Universe
TTITLE16=Child
TTITLE17=Goodbye
EXTD=
EXTT0=
EXTT1=
EXTT2=
EXTT3=
EXTT4=
EXTT5=
EXTT6=
EXTT7=
EXTT8=
EXTT9=
EXTT10=
EXTT11=
EXTT12=
EXTT13=
EXTT14=
EXTT15=
EXTT16=
EXTT17=
PLAYORDER=
